<svg version="1" xmlns="http://www.w3.org/2000/svg" width="1381.333" height="1381.333" viewBox="0 0 1036.000000 1036.000000"><path d="M491.9 115.4c-.2.2-5.3.7-11.4 1.1-6 .3-12.3.8-14 1.1-1.6.2-8.6 1.1-15.5 1.9-43.9 5.6-88.8 17.9-131.9 36.2C307.7 160.5 276 176 267 181c-24.1 13.7-46.5 28.6-65.5 43.4-30.4 23.7-59.1 52.1-82.6 81.6C59.3 380.9 19.3 477.2 9.5 569c-.4 3.6-.9 7.3-1.1 8.4-1.7 9.4-2.5 62.8-1.1 83.3 3.8 58.7 16.8 113.4 39.8 167.3 12.2 28.5 36.7 72.5 44.9 80.8 2.3 2.3 6.7 5.4 9.8 6.9l5.7 2.8h821l5.7-2.8c9.5-4.7 12.7-8.5 26.9-32.9 12.8-21.9 25.6-48.6 35.4-73.8 14.4-36.9 26.8-88.2 30.1-124.4.3-3.3.7-7.2 1-8.6 2.5-15.6 2.4-76.7-.2-99.5-3.4-29.6-7.1-50.6-13.6-75.9-4.8-18.9-12.9-44.5-17.8-56.1-.5-1.1-3.2-7.6-6.1-14.5-18.9-45.4-45.7-90.7-75.1-126.8-40.6-49.9-87.8-89.4-145.4-121.7-63-35.4-138.4-59.2-203.2-64.1-4.2-.3-8.8-.8-10.2-1.1-2.9-.5-63.5-1.4-64.1-.9zm47.6 75.6c23.3 7.2 42.6 27.3 49.1 51.2 2.5 9 2.5 29-.1 37.8-6.8 23.7-25.2 43.1-48.1 50.6-8.2 2.7-10 2.9-23.4 2.9-13.1-.1-15.2-.3-22.1-2.7-25.9-9.1-44.8-30.6-49.4-56.3-1.5-8.7-1.1-24.1 1-32 6.8-25.8 28.9-47.1 54.9-53.1 9-2 29.1-1.2 38.1 1.6zM279.2 299.4c17.4 4 34.1 16.2 44.7 32.5 17 26.3 14 62.5-7.1 86.6-9.6 11.1-20.6 18.2-34.8 22.6-9.7 3-28.9 3.3-39 .6-25.7-6.8-47.3-29.2-52.8-54.8-1.8-8-2.2-22.4-.9-29.2 4.1-20.9 16.2-38.3 34.7-49.9 15.3-9.6 36.3-12.8 55.2-8.4zm508.3-.9c25.2 4.5 48 24.8 56.1 50 3.5 10.9 4.3 25.1 2 36.5-5.4 26.6-25.1 48-51.6 56.1-6.2 1.9-9.7 2.3-20.5 2.3-11.2 0-14.2-.4-21.5-2.7-24.1-7.5-43.3-27.7-49.6-52-2.3-9.1-2.5-23.7-.4-33.8 5-23.9 22.7-44 47.5-53.8 8.5-3.3 27.1-4.6 38-2.6zM614 383.6c14.1 5.5 24 19.6 24 34.3 0 5.5-2.2 14.8-12.5 53.6-4.1 15.3-12.6 47.5-15.1 57-.9 3.3-8.1 30.5-16 60.4s-14.4 55-14.4 55.6c0 .7 2.5 3.1 5.5 5.4 20.5 15.5 36.3 41.9 40.9 68.6 1.7 10 1.3 29.5-.8 39.3-7.6 34.8-27.2 60.5-58.2 76.4-26.6 13.6-52.3 15.9-81.9 7.3-38.9-11.3-67.8-43.7-76.6-86-1.9-8.9-1.6-29.4.5-39.4 5-24.1 15.6-43.4 32.6-59.4 16.2-15.3 36.8-25.4 58.8-28.8 5.4-.8 8.2-1.7 8.2-2.5 0-.7 1.6-7.1 3.5-14.1s12-45.4 22.5-85.3 20-75.7 21-79.5c1-3.9 3.9-14.9 6.5-24.5 5.4-20.4 8.1-25.8 15.9-32.1 10.5-8.5 23.9-10.9 35.6-6.3zM170.5 555.5c26.3 6.8 47.4 29 53.1 55.8 2.8 13.6 1.3 30.7-4.1 43.8-8.5 21.1-29.9 38.7-52.5 43.3-7.7 1.6-25.4 1.4-32.5-.4-26.2-6.6-47.9-29-53.9-55.5-1.8-8.1-1.6-26.1.4-34 1.6-6.5 9.1-22.1 12.5-26 9.5-10.9 15.3-15.8 24.5-20.8 5.8-3.2 17.1-6.9 24-8 5.5-.8 22.8.3 28.5 1.8zm730.6-.2c25.9 6.2 48.5 29.1 54.3 55.2 2 8.9 1.6 26.5-.8 35.4-5.1 18.8-20.1 37.3-37.6 46.1-11 5.6-19.3 7.4-33 7.4-14.8 0-21.8-1.5-33.8-7.6-17.8-8.9-32.6-26.8-37.8-45.9-2.2-8-2.5-28.9-.6-36.9 5.1-20.9 23.1-41.7 43.4-50.2 13-5.5 31.6-6.9 45.9-3.5z"/></svg>